# Blender 4.2.1 LTS
# www.blender.org
mtllib 2_5D_UV_Mapped.mtl
o 2_5D_coupon
v 0.000000 0.012037 -0.004334
v -0.653157 0.012037 -0.004334
v -0.653157 0.000000 0.000000
v 0.000000 0.000000 0.000000
v 0.000000 0.041360 -0.017024
v -0.653157 0.041360 -0.017024
v 0.000000 0.069830 -0.031530
v -0.653157 0.069830 -0.031530
v 0.000000 0.097333 -0.047794
v -0.653157 0.097333 -0.047794
v 0.000000 0.123760 -0.065754
v -0.653157 0.123760 -0.065754
v 0.000000 0.149007 -0.085338
v -0.653157 0.149007 -0.085338
v 0.000000 0.172975 -0.106469
v -0.653157 0.172975 -0.106469
v 0.000000 0.195568 -0.129062
v -0.653157 0.195568 -0.129062
v 0.000000 0.216699 -0.153030
v -0.653157 0.216699 -0.153030
v 0.000000 0.236283 -0.178277
v -0.653157 0.236283 -0.178277
v 0.000000 0.254243 -0.204703
v -0.653157 0.254243 -0.204703
v 0.000000 0.270508 -0.232206
v -0.653157 0.270508 -0.232206
v 0.000000 0.285013 -0.260677
v -0.653157 0.285013 -0.260677
v 0.000000 0.297703 -0.290000
v -0.653157 0.297703 -0.290000
v 0.000000 0.308527 -0.320064
v -0.653157 0.308527 -0.320064
v 0.000000 0.317441 -0.350748
v -0.653157 0.317441 -0.350748
v 0.000000 0.324412 -0.381930
v -0.653157 0.324412 -0.381930
v 0.000000 0.329410 -0.413489
v -0.653157 0.329410 -0.413489
v 0.000000 0.332417 -0.445299
v -0.653157 0.332417 -0.445299
v 0.000000 0.333421 -0.477236
v -0.653157 0.333421 -0.477236
v 0.000000 0.332417 -0.509172
v -0.653157 0.332417 -0.509172
v 0.000000 0.329410 -0.540983
v -0.653157 0.329410 -0.540983
v 0.000000 0.324412 -0.572542
v -0.653157 0.324412 -0.572542
v 0.000000 0.317441 -0.603724
v -0.653157 0.317441 -0.603724
v 0.000000 0.308527 -0.634408
v -0.653157 0.308527 -0.634408
v 0.000000 0.297703 -0.664471
v -0.653157 0.297703 -0.664471
v 0.000000 0.285013 -0.693795
v -0.653157 0.285013 -0.693795
v 0.000000 0.270508 -0.722265
v -0.653157 0.270508 -0.722265
v 0.000000 0.254243 -0.749767
v -0.653157 0.254243 -0.749767
v 0.000000 0.236283 -0.776195
v -0.653157 0.236283 -0.776195
v 0.000000 0.216699 -0.801442
v -0.653157 0.216699 -0.801442
v 0.000000 0.195568 -0.825409
v -0.653157 0.195568 -0.825409
v 0.000000 0.172975 -0.848003
v -0.653157 0.172975 -0.848003
v 0.000000 0.149007 -0.869134
v -0.653157 0.149007 -0.869134
v 0.000000 0.123760 -0.888718
v -0.653157 0.123760 -0.888718
v 0.000000 0.097333 -0.906677
v -0.653157 0.097333 -0.906677
v 0.000000 0.069830 -0.922942
v -0.653157 0.069830 -0.922942
v 0.000000 0.041360 -0.937448
v -0.653157 0.041360 -0.937448
v 0.000000 0.012037 -0.950138
v -0.653157 0.012037 -0.950138
v 0.000000 0.000000 -0.954472
v -0.653157 0.000000 -0.954472
v 0.000000 0.008355 -0.940841
v 0.000000 0.000000 -0.943849
v 0.000000 0.037104 -0.928400
v 0.000000 0.000000 -0.010623
v 0.000000 0.008355 -0.013631
v 0.000000 0.065013 -0.914179
v 0.000000 0.037104 -0.026072
v 0.000000 0.065013 -0.040293
v 0.000000 0.091975 -0.898234
v 0.000000 0.117882 -0.880628
v 0.000000 0.091975 -0.056237
v 0.000000 0.142633 -0.861429
v 0.000000 0.117882 -0.073844
v 0.000000 0.142633 -0.093043
v 0.000000 0.166130 -0.840714
v 0.000000 0.188279 -0.818565
v 0.000000 0.166130 -0.113758
v 0.000000 0.208994 -0.795068
v 0.000000 0.188279 -0.135907
v 0.000000 0.208994 -0.159404
v 0.000000 0.228193 -0.770317
v 0.000000 0.245800 -0.744409
v 0.000000 0.228193 -0.184155
v 0.000000 0.245800 -0.210062
v 0.000000 0.261745 -0.717448
v 0.000000 0.275965 -0.689538
v 0.000000 0.261745 -0.237024
v 0.000000 0.288406 -0.660790
v 0.000000 0.275965 -0.264934
v 0.000000 0.288406 -0.293681
v 0.000000 0.299016 -0.631318
v 0.000000 0.307756 -0.601237
v 0.000000 0.299016 -0.323154
v 0.000000 0.314589 -0.570668
v 0.000000 0.307756 -0.353234
v 0.000000 0.314589 -0.383804
v 0.000000 0.319489 -0.539729
v 0.000000 0.322437 -0.508544
v 0.000000 0.319489 -0.414743
v 0.000000 0.322437 -0.445927
v 0.000000 0.323421 -0.477236
v -0.653157 0.000000 -0.943849
v -0.653157 0.008355 -0.940841
v -0.653157 0.037104 -0.928400
v -0.653157 0.008355 -0.013631
v -0.653157 0.000000 -0.010623
v -0.653157 0.037104 -0.026072
v -0.653157 0.065013 -0.914179
v -0.653157 0.065013 -0.040293
v -0.653157 0.091975 -0.898234
v -0.653157 0.117882 -0.880628
v -0.653157 0.091975 -0.056237
v -0.653157 0.117882 -0.073844
v -0.653157 0.142633 -0.861429
v -0.653157 0.142633 -0.093043
v -0.653157 0.166130 -0.840714
v -0.653157 0.188279 -0.818565
v -0.653157 0.166130 -0.113758
v -0.653157 0.188279 -0.135907
v -0.653157 0.208994 -0.795068
v -0.653157 0.228193 -0.770317
v -0.653157 0.208994 -0.159404
v -0.653157 0.228193 -0.184155
v -0.653157 0.245800 -0.744409
v -0.653157 0.245800 -0.210062
v -0.653157 0.261745 -0.717448
v -0.653157 0.275965 -0.689538
v -0.653157 0.261745 -0.237024
v -0.653157 0.275965 -0.264934
v -0.653157 0.288406 -0.660790
v -0.653157 0.288406 -0.293681
v -0.653157 0.299016 -0.631318
v -0.653157 0.307756 -0.601237
v -0.653157 0.299016 -0.323154
v -0.653157 0.307756 -0.353234
v -0.653157 0.314589 -0.570668
v -0.653157 0.319489 -0.539729
v -0.653157 0.314589 -0.383804
v -0.653157 0.319489 -0.414743
v -0.653157 0.322437 -0.508544
v -0.653157 0.322437 -0.445927
v -0.653157 0.323421 -0.477236
vn -0.0000 0.3388 0.9409
vn -0.0000 0.3972 0.9177
vn -0.0000 0.4540 0.8910
vn -0.0000 0.5090 0.8608
vn -0.0000 0.5621 0.8271
vn -0.0000 0.6129 0.7901
vn -0.0000 0.6613 0.7501
vn -0.0000 0.7071 0.7071
vn -0.0000 0.7501 0.6613
vn -0.0000 0.7901 0.6129
vn -0.0000 0.8271 0.5621
vn -0.0000 0.8607 0.5090
vn -0.0000 0.8910 0.4539
vn -0.0000 0.9177 0.3972
vn -0.0000 0.9409 0.3387
vn -0.0000 0.9603 0.2790
vn -0.0000 0.9759 0.2182
vn -0.0000 0.9877 0.1564
vn -0.0000 0.9956 0.0941
vn -0.0000 0.9995 0.0314
vn -0.0000 0.9995 -0.0314
vn -0.0000 0.9956 -0.0941
vn -0.0000 0.9877 -0.1564
vn -0.0000 0.9759 -0.2182
vn -0.0000 0.9603 -0.2790
vn -0.0000 0.9409 -0.3388
vn -0.0000 0.9178 -0.3972
vn -0.0000 0.9177 -0.3972
vn -0.0000 0.8910 -0.4540
vn -0.0000 0.8607 -0.5090
vn -0.0000 0.8607 -0.5091
vn -0.0000 0.8271 -0.5621
vn -0.0000 0.7901 -0.6129
vn -0.0000 0.7902 -0.6129
vn -0.0000 0.7501 -0.6613
vn -0.0000 0.7071 -0.7071
vn -0.0000 0.6613 -0.7501
vn -0.0000 0.6129 -0.7901
vn -0.0000 0.5621 -0.8271
vn -0.0000 0.5090 -0.8607
vn -0.0000 0.4540 -0.8910
vn -0.0000 0.3972 -0.9177
vn -0.0000 0.3388 -0.9409
vn 1.0000 -0.0000 -0.0000
vn -1.0000 -0.0000 0.0001
vn -1.0000 -0.0000 -0.0001
vn -1.0000 -0.0000 -0.0000
vn -0.0000 -0.3387 -0.9409
vn -0.0000 -0.3972 -0.9178
vn -0.0000 -0.4540 -0.8910
vn -0.0000 -0.5090 -0.8608
vn -0.0000 -0.5621 -0.8271
vn -0.0000 -0.6129 -0.7902
vn -0.0000 -0.6613 -0.7501
vn -0.0000 -0.7071 -0.7071
vn -0.0000 -0.7501 -0.6613
vn -0.0000 -0.7902 -0.6129
vn -0.0000 -0.8271 -0.5621
vn -0.0000 -0.8607 -0.5090
vn -0.0000 -0.8910 -0.4540
vn -0.0000 -0.9177 -0.3972
vn -0.0000 -0.9409 -0.3387
vn -0.0000 -0.9603 -0.2790
vn -0.0000 -0.9759 -0.2181
vn -0.0000 -0.9877 -0.1564
vn -0.0000 -0.9956 -0.0941
vn -0.0000 -0.9995 -0.0314
vn -0.0000 -0.9995 0.0314
vn -0.0000 -0.9956 0.0941
vn -0.0000 -0.9877 0.1564
vn -0.0000 -0.9759 0.2181
vn -0.0000 -0.9603 0.2790
vn -0.0000 -0.9409 0.3387
vn -0.0000 -0.9177 0.3972
vn -0.0000 -0.8910 0.4540
vn -0.0000 -0.8607 0.5090
vn -0.0000 -0.8271 0.5621
vn -0.0000 -0.7902 0.6129
vn -0.0000 -0.7501 0.6613
vn -0.0000 -0.7071 0.7071
vn -0.0000 -0.6613 0.7501
vn -0.0000 -0.6129 0.7902
vn -0.0000 -0.5621 0.8271
vn -0.0000 -0.5090 0.8607
vn -0.0000 -0.4540 0.8910
vn -0.0000 -0.3972 0.9178
vn -0.0000 -0.3387 0.9409
vn -0.0000 -1.0000 -0.0000
vt 0.000000 0.400281
vt 0.377128 0.400281
vt 0.377128 0.404990
vt 0.000000 0.404990
vt 0.000000 0.387652
vt 0.377128 0.387652
vt 0.000000 0.374203
vt 0.377128 0.374203
vt 0.000000 0.359989
vt 0.377128 0.359989
vt 0.000000 0.345063
vt 0.377128 0.345063
vt 0.000000 0.329486
vt 0.377128 0.329486
vt 0.000000 0.313319
vt 0.377128 0.313319
vt 0.000000 0.296626
vt 0.377128 0.296626
vt 0.000000 0.279472
vt 0.377128 0.279472
vt 0.000000 0.261926
vt 0.377128 0.261926
vt 0.000000 0.244058
vt 0.377128 0.244058
vt 0.000000 0.225935
vt 0.377128 0.225935
vt 0.000000 0.207631
vt 0.377128 0.207631
vt 0.000000 0.189219
vt 0.377128 0.189219
vt 0.000000 0.170770
vt 0.377128 0.170770
vt 0.000000 0.152357
vt 0.377128 0.152357
vt 0.000000 0.134054
vt 0.377128 0.134054
vt 0.000000 0.115932
vt 0.377128 0.115932
vt 0.000000 0.098062
vt 0.377128 0.098062
vt 0.000000 0.080516
vt 0.377128 0.080516
vt 0.000000 0.063363
vt 0.377128 0.063363
vt 0.000000 0.046669
vt 0.377128 0.046669
vt 0.000000 0.030503
vt 0.377128 0.030503
vt 0.000000 0.014926
vt 0.377128 0.014926
vt 0.000000 0.000000
vt 0.377128 0.000000
vt -0.000000 0.782118
vt 0.000000 0.404990
vt 0.015259 0.404990
vt 0.015259 0.782118
vt 0.031139 0.404990
vt 0.031139 0.782118
vt 0.047577 0.404990
vt 0.047577 0.782118
vt 0.064508 0.404990
vt 0.064508 0.782118
vt 0.081867 0.404990
vt 0.081867 0.782118
vt 0.099583 0.404990
vt 0.099583 0.782118
vt 0.117588 0.404990
vt 0.117588 0.782118
vt 0.135810 0.404990
vt 0.135810 0.782118
vt 0.154177 0.404990
vt 0.154177 0.782118
vt 0.172617 0.404990
vt 0.172617 0.782118
vt 0.191057 0.404990
vt 0.191057 0.782118
vt 0.209424 0.404990
vt 0.209424 0.782118
vt 0.227646 0.404990
vt 0.227646 0.782118
vt 0.245650 0.404990
vt 0.245650 0.782118
vt 0.252744 0.404990
vt 0.252744 0.782118
vt 0.761206 0.002502
vt 0.759080 0.007870
vt 0.754256 0.006134
vt 0.754256 0.000000
vt 0.775679 0.015054
vt 0.778137 0.009830
vt 0.794575 0.018205
vt 0.810455 0.027596
vt 0.825714 0.037966
vt 0.840291 0.049274
vt 0.854130 0.061474
vt 0.867175 0.074520
vt 0.879376 0.088358
vt 0.890684 0.102936
vt 0.901054 0.118195
vt 0.910445 0.134075
vt 0.918820 0.150513
vt 0.926147 0.167444
vt 0.932397 0.184803
vt 0.937544 0.202519
vt 0.941569 0.220524
vt 0.944455 0.238745
vt 0.946191 0.257113
vt 0.946771 0.275553
vt 0.946191 0.293992
vt 0.944455 0.312360
vt 0.941569 0.330581
vt 0.937544 0.348586
vt 0.932397 0.366302
vt 0.926147 0.383661
vt 0.918820 0.400592
vt 0.910445 0.417031
vt 0.901054 0.432911
vt 0.890684 0.448169
vt 0.879376 0.462747
vt 0.867175 0.476586
vt 0.854130 0.489631
vt 0.840291 0.501831
vt 0.825714 0.513139
vt 0.810455 0.523509
vt 0.794575 0.532900
vt 0.778137 0.541275
vt 0.761206 0.548603
vt 0.754256 0.551105
vt 0.754256 0.544971
vt 0.759080 0.543235
vt 0.791794 0.023265
vt 0.775679 0.536051
vt 0.791794 0.527840
vt 0.807361 0.032471
vt 0.822320 0.042637
vt 0.807361 0.518634
vt 0.836611 0.053722
vt 0.822320 0.508468
vt 0.836611 0.497383
vt 0.850178 0.065683
vt 0.862967 0.078472
vt 0.850178 0.485422
vt 0.874927 0.092039
vt 0.862967 0.472633
vt 0.874927 0.459066
vt 0.886013 0.106330
vt 0.896179 0.121289
vt 0.886013 0.444775
vt 0.896179 0.429817
vt 0.905385 0.136856
vt 0.913596 0.152971
vt 0.905385 0.414249
vt 0.920779 0.169570
vt 0.913596 0.398134
vt 0.920779 0.381536
vt 0.926905 0.186587
vt 0.931952 0.203955
vt 0.926905 0.364518
vt 0.935897 0.221606
vt 0.931952 0.347150
vt 0.935897 0.329499
vt 0.938726 0.239469
vt 0.940428 0.257475
vt 0.938726 0.311636
vt 0.940428 0.293630
vt 0.940997 0.275553
vt 0.377128 0.399882
vt 0.384078 0.402384
vt 0.401009 0.409711
vt 0.417447 0.418087
vt 0.433327 0.427478
vt 0.448586 0.437848
vt 0.463163 0.449155
vt 0.477002 0.461356
vt 0.490047 0.474401
vt 0.502248 0.488240
vt 0.513556 0.502818
vt 0.523926 0.518076
vt 0.533317 0.533956
vt 0.541692 0.550395
vt 0.549019 0.567326
vt 0.555269 0.584684
vt 0.560416 0.602401
vt 0.564441 0.620405
vt 0.567327 0.638627
vt 0.569063 0.656994
vt 0.569643 0.675434
vt 0.569063 0.693874
vt 0.567327 0.712241
vt 0.564441 0.730463
vt 0.560416 0.748467
vt 0.555269 0.766184
vt 0.549019 0.783542
vt 0.541692 0.800474
vt 0.533317 0.816912
vt 0.523926 0.832792
vt 0.513556 0.848051
vt 0.502248 0.862628
vt 0.490047 0.876467
vt 0.477002 0.889512
vt 0.463163 0.901713
vt 0.448586 0.913021
vt 0.433327 0.923390
vt 0.417447 0.932782
vt 0.401009 0.941157
vt 0.384078 0.948484
vt 0.377128 0.950987
vt 0.377128 0.944853
vt 0.381952 0.943116
vt 0.398551 0.935933
vt 0.381952 0.407752
vt 0.377128 0.406015
vt 0.398551 0.414935
vt 0.414666 0.927722
vt 0.414666 0.423147
vt 0.430234 0.918515
vt 0.445192 0.908350
vt 0.430233 0.432353
vt 0.445192 0.442519
vt 0.459483 0.897264
vt 0.459483 0.453604
vt 0.473050 0.885304
vt 0.485839 0.872515
vt 0.473050 0.465565
vt 0.485839 0.478353
vt 0.497800 0.858948
vt 0.508885 0.844657
vt 0.497799 0.491920
vt 0.508885 0.506211
vt 0.519051 0.829698
vt 0.519051 0.521170
vt 0.528258 0.814131
vt 0.536468 0.798016
vt 0.528258 0.536738
vt 0.536468 0.552853
vt 0.543651 0.781417
vt 0.543651 0.569451
vt 0.549778 0.764400
vt 0.554824 0.747031
vt 0.549778 0.586468
vt 0.554824 0.603836
vt 0.558769 0.729381
vt 0.561598 0.711517
vt 0.558769 0.621487
vt 0.561598 0.639351
vt 0.563301 0.693511
vt 0.563301 0.657357
vt 0.563869 0.675434
vt 0.377128 0.394043
vt 0.377128 0.390912
vt 0.754256 0.390912
vt 0.754256 0.394043
vt 0.754256 0.378989
vt 0.377128 0.378989
vt 0.754256 0.366236
vt 0.377128 0.366236
vt 0.754256 0.352704
vt 0.377128 0.352704
vt 0.754256 0.338445
vt 0.377128 0.338445
vt 0.754256 0.323514
vt 0.377128 0.323514
vt 0.754256 0.307973
vt 0.377128 0.307973
vt 0.377128 0.291881
vt 0.754256 0.291881
vt 0.377128 0.275303
vt 0.754256 0.275303
vt 0.377128 0.258303
vt 0.754256 0.258303
vt 0.377128 0.240949
vt 0.754256 0.240949
vt 0.377128 0.223310
vt 0.754256 0.223310
vt 0.377128 0.205455
vt 0.754256 0.205455
vt 0.377128 0.187454
vt 0.754256 0.187454
vt 0.377128 0.169378
vt 0.754256 0.169378
vt 0.377128 0.151299
vt 0.754256 0.151299
vt 0.377128 0.133288
vt 0.754256 0.133288
vt 0.377128 0.115416
vt 0.754256 0.115416
vt 0.377128 0.097755
vt 0.754256 0.097755
vt 0.377128 0.080372
vt 0.754256 0.080372
vt 0.377128 0.063338
vt 0.754256 0.063338
vt 0.377128 0.046719
vt 0.754256 0.046719
vt 0.377128 0.030581
vt 0.754256 0.030581
vt 0.377128 0.014988
vt 0.754256 0.014988
vt 0.754256 0.000000
vt 0.769214 0.551105
vt 0.769214 0.928233
vt 0.754256 0.928233
vt 0.754256 0.551105
vt 0.784782 0.551105
vt 0.784782 0.928233
vt 0.800897 0.551105
vt 0.800897 0.928233
vt 0.817495 0.551105
vt 0.817495 0.928233
vt 0.834513 0.551105
vt 0.834513 0.928233
vt 0.851881 0.551105
vt 0.851881 0.928233
vt 0.869532 0.551105
vt 0.869532 0.928233
vt 0.887395 0.551105
vt 0.887395 0.928233
vt 0.905401 0.551105
vt 0.905401 0.928233
vt 0.923479 0.551105
vt 0.923479 0.928233
vt 0.941556 0.551105
vt 0.941556 0.928233
vt 0.959562 0.551105
vt 0.959562 0.928233
vt 0.977425 0.551105
vt 0.977425 0.928233
vt 0.995076 0.551105
vt 0.995076 0.928233
vt 1.000000 0.551105
vt 1.000000 0.928233
vt 0.569643 0.777010
vt 0.569643 0.399882
vt 0.575482 0.399882
vt 0.575481 0.777010
vt 0.754256 0.399882
vt 0.377128 0.399882
s 0
f 1/1/1 2/2/1 3/3/1
f 1/1/1 3/3/1 4/4/1
f 2/2/2 1/1/2 5/5/2
f 2/2/2 5/5/2 6/6/2
f 6/6/3 5/5/3 7/7/3
f 6/6/3 7/7/3 8/8/3
f 8/8/4 7/7/4 9/9/4
f 8/8/4 9/9/4 10/10/4
f 10/10/5 9/9/5 11/11/5
f 10/10/5 11/11/5 12/12/5
f 12/12/6 11/11/6 13/13/6
f 12/12/6 13/13/6 14/14/6
f 14/14/7 13/13/7 15/15/7
f 14/14/7 15/15/7 16/16/7
f 16/16/8 15/15/8 17/17/8
f 16/16/8 17/17/8 18/18/8
f 18/18/9 17/17/9 19/19/9
f 18/18/9 19/19/9 20/20/9
f 20/20/10 19/19/10 21/21/10
f 20/20/10 21/21/10 22/22/10
f 22/22/11 21/21/11 23/23/11
f 22/22/11 23/23/11 24/24/11
f 24/24/12 23/23/12 25/25/12
f 24/24/12 25/25/12 26/26/12
f 26/26/13 25/25/13 27/27/13
f 26/26/13 27/27/13 28/28/13
f 28/28/14 27/27/14 29/29/14
f 28/28/14 29/29/14 30/30/14
f 30/30/15 29/29/15 31/31/15
f 30/30/15 31/31/15 32/32/15
f 32/32/16 31/31/16 33/33/16
f 32/32/16 33/33/16 34/34/16
f 34/34/17 33/33/17 35/35/17
f 34/34/17 35/35/17 36/36/17
f 36/36/18 35/35/18 37/37/18
f 36/36/18 37/37/18 38/38/18
f 38/38/19 37/37/19 39/39/19
f 38/38/19 39/39/19 40/40/19
f 40/40/20 39/39/20 41/41/20
f 40/40/20 41/41/20 42/42/20
f 42/42/21 41/41/21 43/43/21
f 42/42/21 43/43/21 44/44/21
f 44/44/22 43/43/22 45/45/22
f 44/44/22 45/45/22 46/46/22
f 46/46/23 45/45/23 47/47/23
f 46/46/23 47/47/23 48/48/23
f 48/48/24 47/47/24 49/49/24
f 48/48/24 49/49/24 50/50/24
f 50/50/25 49/49/25 51/51/25
f 50/50/25 51/51/25 52/52/25
f 52/53/26 51/54/26 53/55/26
f 52/53/26 53/55/26 54/56/26
f 54/56/27 53/55/27 55/57/27
f 54/56/28 55/57/28 56/58/28
f 56/58/29 55/57/29 57/59/29
f 56/58/29 57/59/29 58/60/29
f 58/60/30 57/59/30 59/61/30
f 58/60/31 59/61/31 60/62/31
f 60/62/32 59/61/32 61/63/32
f 60/62/32 61/63/32 62/64/32
f 62/64/33 61/63/33 63/65/33
f 62/64/34 63/65/34 64/66/34
f 64/66/35 63/65/35 65/67/35
f 64/66/35 65/67/35 66/68/35
f 66/68/36 65/67/36 67/69/36
f 66/68/36 67/69/36 68/70/36
f 68/70/37 67/69/37 69/71/37
f 68/70/37 69/71/37 70/72/37
f 70/72/38 69/71/38 71/73/38
f 70/72/38 71/73/38 72/74/38
f 72/74/39 71/73/39 73/75/39
f 72/74/39 73/75/39 74/76/39
f 74/76/40 73/75/40 75/77/40
f 74/76/40 75/77/40 76/78/40
f 76/78/41 75/77/41 77/79/41
f 76/78/41 77/79/41 78/80/41
f 78/80/42 77/79/42 79/81/42
f 78/80/42 79/81/42 80/82/42
f 80/82/43 79/81/43 81/83/43
f 80/82/43 81/83/43 82/84/43
f 79/85/44 83/86/44 84/87/44
f 79/85/44 84/87/44 81/88/44
f 85/89/44 83/86/44 79/85/44
f 79/85/44 77/90/44 75/91/44
f 75/91/44 73/92/44 71/93/44
f 71/93/44 69/94/44 67/95/44
f 67/95/44 65/96/44 63/97/44
f 63/97/44 61/98/44 59/99/44
f 59/99/44 57/100/44 55/101/44
f 55/101/44 53/102/44 51/103/44
f 51/103/44 49/104/44 47/105/44
f 47/105/44 45/106/44 43/107/44
f 43/107/44 41/108/44 39/109/44
f 39/109/44 37/110/44 35/111/44
f 35/111/44 33/112/44 31/113/44
f 31/113/44 29/114/44 27/115/44
f 27/115/44 25/116/44 23/117/44
f 23/117/44 21/118/44 19/119/44
f 19/119/44 17/120/44 15/121/44
f 15/121/44 13/122/44 11/123/44
f 11/123/44 9/124/44 7/125/44
f 7/125/44 5/126/44 1/127/44
f 1/127/44 4/128/44 86/129/44
f 1/127/44 86/129/44 87/130/44
f 11/123/44 7/125/44 1/127/44
f 19/119/44 15/121/44 11/123/44
f 27/115/44 23/117/44 19/119/44
f 35/111/44 31/113/44 27/115/44
f 43/107/44 39/109/44 35/111/44
f 51/103/44 47/105/44 43/107/44
f 59/99/44 55/101/44 51/103/44
f 67/95/44 63/97/44 59/99/44
f 75/91/44 71/93/44 67/95/44
f 85/89/44 79/85/44 75/91/44
f 88/131/44 85/89/44 75/91/44
f 1/127/44 87/130/44 89/132/44
f 1/127/44 89/132/44 90/133/44
f 91/134/44 88/131/44 75/91/44
f 92/135/44 91/134/44 75/91/44
f 11/123/44 1/127/44 90/133/44
f 11/123/44 90/133/44 93/136/44
f 92/135/44 75/91/44 67/95/44
f 94/137/44 92/135/44 67/95/44
f 11/123/44 93/136/44 95/138/44
f 11/123/44 95/138/44 96/139/44
f 97/140/44 94/137/44 67/95/44
f 98/141/44 97/140/44 67/95/44
f 19/119/44 11/123/44 96/139/44
f 19/119/44 96/139/44 99/142/44
f 98/141/44 67/95/44 59/99/44
f 100/143/44 98/141/44 59/99/44
f 19/119/44 99/142/44 101/144/44
f 19/119/44 101/144/44 102/145/44
f 103/146/44 100/143/44 59/99/44
f 104/147/44 103/146/44 59/99/44
f 19/119/44 102/145/44 105/148/44
f 19/119/44 105/148/44 106/149/44
f 107/150/44 104/147/44 59/99/44
f 108/151/44 107/150/44 59/99/44
f 27/115/44 19/119/44 106/149/44
f 27/115/44 106/149/44 109/152/44
f 108/151/44 59/99/44 51/103/44
f 110/153/44 108/151/44 51/103/44
f 27/115/44 109/152/44 111/154/44
f 27/115/44 111/154/44 112/155/44
f 113/156/44 110/153/44 51/103/44
f 114/157/44 113/156/44 51/103/44
f 35/111/44 27/115/44 112/155/44
f 35/111/44 112/155/44 115/158/44
f 114/157/44 51/103/44 43/107/44
f 116/159/44 114/157/44 43/107/44
f 35/111/44 115/158/44 117/160/44
f 35/111/44 117/160/44 118/161/44
f 119/162/44 116/159/44 43/107/44
f 120/163/44 119/162/44 43/107/44
f 35/111/44 118/161/44 121/164/44
f 35/111/44 121/164/44 122/165/44
f 123/166/44 120/163/44 43/107/44
f 35/111/44 122/165/44 123/166/44
f 123/166/44 43/107/44 35/111/44
f 3/167/45 2/168/45 6/169/45
f 6/169/45 8/170/45 10/171/45
f 10/171/46 12/172/46 14/173/46
f 14/173/46 16/174/46 18/175/46
f 18/175/47 20/176/47 22/177/47
f 22/177/47 24/178/47 26/179/47
f 26/179/47 28/180/47 30/181/47
f 30/181/47 32/182/47 34/183/47
f 34/183/47 36/184/47 38/185/47
f 38/185/47 40/186/47 42/187/47
f 42/187/47 44/188/47 46/189/47
f 46/189/47 48/190/47 50/191/47
f 50/191/47 52/192/47 54/193/47
f 54/193/47 56/194/47 58/195/47
f 58/195/47 60/196/47 62/197/47
f 62/197/47 64/198/47 66/199/47
f 66/199/45 68/200/45 70/201/45
f 70/201/45 72/202/45 74/203/45
f 74/203/46 76/204/46 78/205/46
f 78/205/46 80/206/46 82/207/46
f 82/207/47 124/208/47 125/209/47
f 82/207/47 125/209/47 126/210/47
f 74/203/47 78/205/47 82/207/47
f 66/199/47 70/201/47 74/203/47
f 58/195/47 62/197/47 66/199/47
f 50/191/47 54/193/47 58/195/47
f 42/187/47 46/189/47 50/191/47
f 34/183/47 38/185/47 42/187/47
f 26/179/47 30/181/47 34/183/47
f 18/175/47 22/177/47 26/179/47
f 10/171/47 14/173/47 18/175/47
f 3/167/47 6/169/47 10/171/47
f 127/211/47 128/212/47 3/167/47
f 129/213/47 127/211/47 3/167/47
f 74/203/47 82/207/47 126/210/47
f 74/203/47 126/210/47 130/214/47
f 129/213/47 3/167/47 10/171/47
f 131/215/47 129/213/47 10/171/47
f 74/203/47 130/214/47 132/216/47
f 74/203/47 132/216/47 133/217/47
f 134/218/47 131/215/47 10/171/47
f 135/219/47 134/218/47 10/171/47
f 66/199/47 74/203/47 133/217/47
f 66/199/46 133/217/46 136/220/46
f 135/219/47 10/171/47 18/175/47
f 137/221/45 135/219/45 18/175/45
f 66/199/47 136/220/47 138/222/47
f 66/199/47 138/222/47 139/223/47
f 140/224/47 137/221/47 18/175/47
f 141/225/47 140/224/47 18/175/47
f 66/199/47 139/223/47 142/226/47
f 66/199/47 142/226/47 143/227/47
f 144/228/47 141/225/47 18/175/47
f 145/229/47 144/228/47 18/175/47
f 58/195/47 66/199/47 143/227/47
f 58/195/47 143/227/47 146/230/47
f 145/229/47 18/175/47 26/179/47
f 147/231/47 145/229/47 26/179/47
f 58/195/47 146/230/47 148/232/47
f 58/195/47 148/232/47 149/233/47
f 150/234/47 147/231/47 26/179/47
f 151/235/47 150/234/47 26/179/47
f 50/191/47 58/195/47 149/233/47
f 50/191/47 149/233/47 152/236/47
f 151/235/47 26/179/47 34/183/47
f 153/237/47 151/235/47 34/183/47
f 50/191/47 152/236/47 154/238/47
f 50/191/47 154/238/47 155/239/47
f 156/240/47 153/237/47 34/183/47
f 157/241/47 156/240/47 34/183/47
f 50/191/47 155/239/47 158/242/47
f 50/191/47 158/242/47 159/243/47
f 160/244/47 157/241/47 34/183/47
f 161/245/47 160/244/47 34/183/47
f 42/187/47 50/191/47 159/243/47
f 42/187/47 159/243/47 162/246/47
f 161/245/47 34/183/47 42/187/47
f 163/247/47 161/245/47 42/187/47
f 42/187/47 162/246/47 164/248/47
f 42/187/47 164/248/47 163/247/47
f 128/249/48 127/250/48 87/251/48
f 128/249/48 87/251/48 86/252/48
f 89/253/49 87/251/49 127/250/49
f 89/253/49 127/250/49 129/254/49
f 90/255/50 89/253/50 129/254/50
f 90/255/50 129/254/50 131/256/50
f 93/257/51 90/255/51 131/256/51
f 93/257/51 131/256/51 134/258/51
f 95/259/52 93/257/52 134/258/52
f 95/259/52 134/258/52 135/260/52
f 96/261/53 95/259/53 135/260/53
f 96/261/53 135/260/53 137/262/53
f 99/263/54 96/261/54 137/262/54
f 99/263/54 137/262/54 140/264/54
f 141/265/55 101/266/55 99/263/55
f 141/265/55 99/263/55 140/264/55
f 144/267/56 102/268/56 101/266/56
f 144/267/56 101/266/56 141/265/56
f 145/269/57 105/270/57 102/268/57
f 145/269/57 102/268/57 144/267/57
f 147/271/58 106/272/58 105/270/58
f 147/271/58 105/270/58 145/269/58
f 150/273/59 109/274/59 106/272/59
f 150/273/59 106/272/59 147/271/59
f 151/275/60 111/276/60 109/274/60
f 151/275/60 109/274/60 150/273/60
f 153/277/61 112/278/61 111/276/61
f 153/277/61 111/276/61 151/275/61
f 156/279/62 115/280/62 112/278/62
f 156/279/62 112/278/62 153/277/62
f 157/281/63 117/282/63 115/280/63
f 157/281/63 115/280/63 156/279/63
f 160/283/64 118/284/64 117/282/64
f 160/283/64 117/282/64 157/281/64
f 161/285/65 121/286/65 118/284/65
f 161/285/65 118/284/65 160/283/65
f 163/287/66 122/288/66 121/286/66
f 163/287/66 121/286/66 161/285/66
f 164/289/67 123/290/67 122/288/67
f 164/289/67 122/288/67 163/287/67
f 162/291/68 120/292/68 123/290/68
f 162/291/68 123/290/68 164/289/68
f 159/293/69 119/294/69 120/292/69
f 159/293/69 120/292/69 162/291/69
f 158/295/70 116/296/70 119/294/70
f 158/295/70 119/294/70 159/293/70
f 155/297/71 114/298/71 116/296/71
f 155/297/71 116/296/71 158/295/71
f 154/52/72 113/299/72 114/298/72
f 154/52/72 114/298/72 155/297/72
f 152/300/73 110/301/73 113/302/73
f 152/300/73 113/302/73 154/303/73
f 149/304/74 108/305/74 110/301/74
f 149/304/74 110/301/74 152/300/74
f 148/306/75 107/307/75 108/305/75
f 148/306/75 108/305/75 149/304/75
f 146/308/76 104/309/76 107/307/76
f 146/308/76 107/307/76 148/306/76
f 143/310/77 103/311/77 104/309/77
f 143/310/77 104/309/77 146/308/77
f 142/312/78 100/313/78 103/311/78
f 142/312/78 103/311/78 143/310/78
f 139/314/79 98/315/79 100/313/79
f 139/314/79 100/313/79 142/312/79
f 138/316/80 97/317/80 98/315/80
f 138/316/80 98/315/80 139/314/80
f 136/318/81 94/319/81 97/317/81
f 136/318/81 97/317/81 138/316/81
f 133/320/82 92/321/82 94/319/82
f 133/320/82 94/319/82 136/318/82
f 132/322/83 91/323/83 92/321/83
f 132/322/83 92/321/83 133/320/83
f 130/324/84 88/325/84 91/323/84
f 130/324/84 91/323/84 132/322/84
f 126/326/85 85/327/85 88/325/85
f 126/326/85 88/325/85 130/324/85
f 125/328/86 83/329/86 85/327/86
f 125/328/86 85/327/86 126/326/86
f 83/329/87 125/328/87 124/330/87
f 83/329/87 124/330/87 84/331/87
f 82/332/88 81/333/88 84/334/88
f 82/332/88 84/334/88 124/335/88
f 86/252/88 4/336/88 3/337/88
f 86/252/88 3/337/88 128/249/88
